<svg xmlns="http://www.w3.org/2000/svg" width="245.63" height="37.71" viewBox="0 0 245.63 37.71">
  <defs>
    <style>
      .cls-1 {
        fill: #cacfd8;
        fill-rule: evenodd;
      }
    </style>
  </defs>
  <path id="comingsoon.svg" class="cls-1" d="M1715,1307.52c8.8,0,12.56-6,13.48-9.92l-6.04-1.72a7.239,7.239,0,0,1-7.44,5.32,8.026,8.026,0,0,1-8.16-8.4c0-5.96,4.28-8.68,8.08-8.68,5,0,6.8,3.32,7.24,5.28l5.96-1.88c-0.92-4.08-4.68-9.57-13.2-9.57a14.459,14.459,0,0,0-14.65,14.85C1700.27,1301.64,1706.84,1307.52,1715,1307.52Zm26.52-5.6c-2.28,0-4.48-1.64-4.48-4.96,0-3.36,2.2-4.92,4.48-4.92,2.32,0,4.48,1.56,4.48,4.92S1743.84,1301.92,1741.52,1301.92Zm0-15.48a10.54,10.54,0,1,0,10.56,10.52A10.271,10.271,0,0,0,1741.52,1286.44Zm20.56,20.48v-11.44a3.232,3.232,0,0,1,3.28-3.44c2.2,0,3.2,1.48,3.2,3.36v11.52h6v-11.48a3.23,3.23,0,0,1,3.32-3.4c2.16,0,3.16,1.48,3.16,3.36v11.52h5.89v-12.88c0-5.4-3.61-7.6-7.37-7.6a6.816,6.816,0,0,0-6.16,3.12c-1-1.96-3.04-3.12-5.88-3.12-2.16,0-4.72,1.12-5.72,2.88v-2.28H1756v19.88h6.08Zm36.04,0v-19.88h-6.08v19.88h6.08Zm-6.6-25.97a3.56,3.56,0,1,0,3.52-3.56A3.562,3.562,0,0,0,1791.52,1280.95Zm18.01,14.57a3.226,3.226,0,0,1,3.28-3.48c2.2,0,3.24,1.48,3.24,3.44v11.44h6.08v-12.48c0-4.36-2.24-7.92-7.24-7.92a6.515,6.515,0,0,0-5.56,2.8v-2.28h-5.89v19.88h6.09v-11.4Zm16.32,12.52c0.56,3.56,4.2,7.08,9.92,7.08,7.44,0,10.64-4.96,10.64-10.68v-17.4h-5.8v2.12c-0.56-1.04-2.28-2.48-5.52-2.48-5.44,0-9.24,4.48-9.24,9.72,0,5.52,3.96,9.68,9.24,9.68,2.88,0,4.6-1.16,5.32-2.24v0.92c0,3.6-1.88,5.08-4.92,5.08a4.159,4.159,0,0,1-4.28-3.32Zm10.36-7.24a4.127,4.127,0,0,1-4.28-4.4,4.262,4.262,0,1,1,8.52,0A4.075,4.075,0,0,1,1836.21,1300.8Zm23.52,0.48c0.16,2.2,2.16,6.24,8.4,6.24,5.32,0,7.92-3.32,7.92-6.72,0-2.92-2-5.4-6.12-6.24l-2.64-.52a1.6,1.6,0,0,1-1.56-1.48,1.937,1.937,0,0,1,2.16-1.72,2.612,2.612,0,0,1,2.84,2.44l5.04-.92c-0.2-2.32-2.2-5.92-7.96-5.92-4.44,0-7.64,2.96-7.64,6.6,0,2.8,1.68,5.2,5.92,6.12l2.28,0.52c1.48,0.32,1.96.92,1.96,1.64,0,0.88-.76,1.72-2.32,1.72a2.831,2.831,0,0,1-3.12-2.68Zm29.4,0.64c-2.28,0-4.48-1.64-4.48-4.96,0-3.36,2.2-4.92,4.48-4.92,2.32,0,4.48,1.56,4.48,4.92S1891.45,1301.92,1889.13,1301.92Zm0-15.48a10.54,10.54,0,1,0,10.56,10.52A10.271,10.271,0,0,0,1889.13,1286.44Zm23.6,15.48c-2.28,0-4.48-1.64-4.48-4.96,0-3.36,2.2-4.92,4.48-4.92,2.33,0,4.49,1.56,4.49,4.92S1915.06,1301.92,1912.73,1301.92Zm0-15.48a10.54,10.54,0,1,0,10.57,10.52A10.271,10.271,0,0,0,1912.73,1286.44Zm20.57,9.08a3.226,3.226,0,0,1,3.28-3.48c2.2,0,3.24,1.48,3.24,3.44v11.44h6.08v-12.48c0-4.36-2.24-7.92-7.24-7.92a6.515,6.515,0,0,0-5.56,2.8v-2.28h-5.88v19.88h6.08v-11.4Z" transform="translate(-1700.28 -1277.41)"/>
</svg>
