<svg xmlns="http://www.w3.org/2000/svg" width="65.13" height="28.97" viewBox="0 0 65.13 28.97">
  <defs>
    <style>
      .cls-1 {
        fill: #0e1a2a;
        fill-rule: evenodd;
      }
    </style>
  </defs>
  <path id="tit_tec.svg" class="cls-1" d="M1679.4,1147.6v-6.05h-23.81v6.05h8.73v22.32h6.32V1147.6h8.76Zm4.84,10a3.787,3.787,0,0,1,3.96-3.36c2.88,0,3.92,1.84,4,3.36h-7.96Zm8.4,5.16a3.84,3.84,0,0,1-4,2.6,4.3,4.3,0,0,1-4.52-3.84h13.84a12.688,12.688,0,0,0,.12-1.88c0-6.4-3.8-10.2-9.96-10.2-5.16,0-9.92,4.08-9.92,10.48a10.124,10.124,0,0,0,10.36,10.6c5.04,0,8.2-2.88,9.16-6.32Zm18.52-7.72a3.91,3.91,0,0,1,4,2.96l5.44-1.64c-0.88-3.56-4.08-6.92-9.56-6.92a10.262,10.262,0,0,0-10.48,10.56,10.37,10.37,0,0,0,10.68,10.52,9.413,9.413,0,0,0,9.48-6.92l-5.36-1.64a4.1,4.1,0,0,1-4.12,2.96,4.55,4.55,0,0,1-4.64-4.92C1706.6,1156.8,1708.64,1155.04,1711.16,1155.04Z" transform="translate(-1655.59 -1141.56)"/>
</svg>
