<svg xmlns="http://www.w3.org/2000/svg" width="141.34" height="51.82" viewBox="0 0 141.34 51.82">
  <defs>
    <style>
      .cls-1 {
        fill: #FFF;
        fill-rule: evenodd;
      }
    </style>
  </defs>
  <path id="tit_entry.svg" class="cls-1" d="M1504.19,6582.92v-8.64h-16.82v-7.84h15.21v-8h-15.21v-7.78h16.76v-8.58h-25.86v40.84h25.92Zm15.84-16.42c0-2.88,1.84-5.01,4.72-5.01,3.17,0,4.67,2.13,4.67,4.95v16.48h8.75v-17.97c0-6.28-3.22-11.41-10.42-11.41-2.94,0-6.45,1.33-8.01,4.04v-3.29h-8.46v28.63h8.75V6566.5Zm36-20.56h-7.83v3.69c0,2.65-1.44,4.66-4.44,4.66h-1.44v7.66h5.07v12.27c0,5.7,3.63,9.21,9.56,9.21a10.461,10.461,0,0,0,4.55-.8v-7.26a10.38,10.38,0,0,1-2.3.29c-1.9,0-3.17-.63-3.17-3v-10.71h5.59v-7.66h-5.59v-8.35Zm29.72,8.35a8.715,8.715,0,0,0-2.3-.29c-2.3,0-5.93.93-7.43,4.15v-3.86h-8.47v28.63h8.76v-12.5c0-5.7,3.17-7.78,6.68-7.78a11.9,11.9,0,0,1,2.76.29v-8.64Zm16.25,39.63,17.62-39.63h-9.27l-6.34,15.32-6.97-15.32h-9.79l12.04,24.77-6.51,14.86H1602Z" transform="translate(-1478.28 -6542.09)"/>
</svg>
